<svg xmlns="http://www.w3.org/2000/svg" viewBox="0 0 800 560" width="800" height="560" fill="none">
    <defs>
        <linearGradient id="exp-gold" x1="272" y1="228" x2="528" y2="174" gradientUnits="userSpaceOnUse">
            <stop offset="0" stop-color="#A6B5CF"/>
            <stop offset="0.58" stop-color="#5B6F90"/>
            <stop offset="1" stop-color="#C9913B"/>
        </linearGradient>
    </defs>
    <path d="M226 360L400 412L574 360" stroke="#6B7F9F" stroke-opacity="0.16" stroke-width="2" stroke-linecap="round" stroke-linejoin="round"/>
    <path d="M244 316L400 364L556 316" stroke="#1B2A4A" stroke-opacity="0.12" stroke-width="2" stroke-linecap="round" stroke-linejoin="round"/>
    <path d="M262 272L400 314L538 272" stroke="#1B2A4A" stroke-opacity="0.18" stroke-width="2.5" stroke-linecap="round" stroke-linejoin="round"/>
    <path d="M286 226L400 262L514 226" stroke="url(#exp-gold)" stroke-width="3" stroke-linecap="round" stroke-linejoin="round"/>
    <path d="M322 190L400 214L478 190" stroke="#556A8A" stroke-opacity="0.9" stroke-width="2.5" stroke-linecap="round" stroke-linejoin="round"/>
    <path d="M400 412V214" stroke="#1B2A4A" stroke-opacity="0.16" stroke-width="2" stroke-dasharray="8 14"/>
    <circle cx="400" cy="214" r="8" fill="#FBFCFD" stroke="#E2B86D" stroke-width="3"/>
    <circle cx="400" cy="314" r="4" fill="#556A8A" fill-opacity="0.8"/>
    <circle cx="400" cy="364" r="4" fill="#556A8A" fill-opacity="0.56"/>
    <path d="M318 148H482" stroke="#1B2A4A" stroke-opacity="0.08" stroke-width="2" stroke-linecap="round"/>
    <path d="M286 442H514" stroke="#1B2A4A" stroke-opacity="0.06" stroke-width="2" stroke-linecap="round"/>
    <circle cx="286" cy="226" r="3" fill="#C9913B"/>
    <circle cx="514" cy="226" r="3" fill="#C9913B"/>
</svg>
