<svg xmlns="http://www.w3.org/2000/svg" viewBox="0 0 800 560" width="800" height="560" fill="none">
    <defs>
        <linearGradient id="cns-gold" x1="208" y1="332" x2="594" y2="170" gradientUnits="userSpaceOnUse">
            <stop offset="0" stop-color="#9FAFCA"/>
            <stop offset="0.55" stop-color="#5E7393"/>
            <stop offset="1" stop-color="#C9913B"/>
        </linearGradient>
    </defs>
    <path d="M170 388C232 336 292 308 356 298C413 289 468 275 522 244C565 219 608 187 654 146" stroke="#6B7F9F" stroke-opacity="0.2" stroke-width="2" stroke-dasharray="8 14" stroke-linecap="round"/>
    <path d="M206 334L344 244L468 286L594 170" stroke="#1B2A4A" stroke-opacity="0.16" stroke-width="2.5" stroke-linecap="round" stroke-linejoin="round"/>
    <path d="M208 334L352 286L488 304L594 170" stroke="url(#cns-gold)" stroke-width="3" stroke-linecap="round" stroke-linejoin="round"/>
    <circle cx="208" cy="334" r="6" fill="#556A8A" fill-opacity="0.62"/>
    <circle cx="352" cy="286" r="5" fill="#556A8A" fill-opacity="0.78"/>
    <circle cx="488" cy="304" r="5" fill="#556A8A" fill-opacity="0.78"/>
    <circle cx="594" cy="170" r="8" fill="#FBFCFD" stroke="#C9913B" stroke-width="3"/>
    <circle cx="344" cy="244" r="4" fill="#C9913B"/>
    <path d="M286 154C326 130 372 118 426 118C485 118 540 132 600 164" stroke="#1B2A4A" stroke-opacity="0.08" stroke-width="2" stroke-linecap="round"/>
    <path d="M248 382H338" stroke="#1B2A4A" stroke-opacity="0.08" stroke-width="2" stroke-linecap="round"/>
    <path d="M502 382H608" stroke="#1B2A4A" stroke-opacity="0.08" stroke-width="2" stroke-linecap="round"/>
    <path d="M594 170V110" stroke="#1B2A4A" stroke-opacity="0.08" stroke-width="2"/>
    <path d="M574 110H614" stroke="#1B2A4A" stroke-opacity="0.08" stroke-width="2" stroke-linecap="round"/>
</svg>
