<svg xmlns="http://www.w3.org/2000/svg" viewBox="0 0 800 560" width="800" height="560" fill="none">
    <defs>
        <linearGradient id="bd-path" x1="140" y1="384" x2="676" y2="122" gradientUnits="userSpaceOnUse">
            <stop offset="0" stop-color="#9FAFCA" stop-opacity="0.86"/>
            <stop offset="0.55" stop-color="#5F7394" stop-opacity="0.9"/>
            <stop offset="1" stop-color="#C9913B"/>
        </linearGradient>
        <linearGradient id="bd-gold" x1="582" y1="132" x2="666" y2="214" gradientUnits="userSpaceOnUse">
            <stop offset="0" stop-color="#E2B86D"/>
            <stop offset="1" stop-color="#C9913B"/>
        </linearGradient>
    </defs>
    <path d="M108 404C176 359 243 331 316 312C395 292 475 258 544 208C593 172 637 144 692 124" stroke="#6B7F9F" stroke-opacity="0.22" stroke-width="2" stroke-linecap="round" stroke-dasharray="9 14"/>
    <path d="M128 384C195 342 257 317 330 300C427 277 503 240 566 193L676 122" stroke="url(#bd-path)" stroke-width="3" stroke-linecap="round"/>
    <path d="M590 165L676 122L646 214" fill="url(#bd-gold)"/>
    <path d="M176 170H276" stroke="#1B2A4A" stroke-opacity="0.08" stroke-width="2" stroke-linecap="round"/>
    <path d="M176 202H246" stroke="#1B2A4A" stroke-opacity="0.06" stroke-width="2" stroke-linecap="round"/>
    <path d="M586 312H662" stroke="#1B2A4A" stroke-opacity="0.08" stroke-width="2" stroke-linecap="round"/>
    <path d="M586 344H636" stroke="#1B2A4A" stroke-opacity="0.06" stroke-width="2" stroke-linecap="round"/>
    <path d="M224 410L268 366" stroke="#1B2A4A" stroke-opacity="0.08" stroke-width="2"/>
    <path d="M522 256L564 214" stroke="#1B2A4A" stroke-opacity="0.1" stroke-width="2"/>
    <circle cx="128" cy="384" r="6" fill="#556A8A" fill-opacity="0.62"/>
    <circle cx="330" cy="300" r="5" fill="#556A8A" fill-opacity="0.8"/>
    <circle cx="566" cy="193" r="5" fill="#556A8A" fill-opacity="0.8"/>
    <circle cx="676" cy="122" r="8" fill="#FBFCFD" stroke="#E2B86D" stroke-width="3"/>
    <circle cx="224" cy="410" r="3" fill="#C9913B"/>
    <circle cx="522" cy="256" r="3" fill="#C9913B"/>
</svg>
