<svg xmlns="http://www.w3.org/2000/svg" viewBox="0 0 800 560" width="800" height="560" fill="none">
    <defs>
        <linearGradient id="sh-gold" x1="260" y1="183" x2="590" y2="370" gradientUnits="userSpaceOnUse">
            <stop offset="0" stop-color="#A7B5CF"/>
            <stop offset="0.56" stop-color="#5E7393"/>
            <stop offset="1" stop-color="#C9913B"/>
        </linearGradient>
    </defs>
    <circle cx="404" cy="280" r="154" stroke="#6B7F9F" stroke-opacity="0.16" stroke-width="2" stroke-dasharray="10 16"/>
    <circle cx="404" cy="280" r="104" stroke="#1B2A4A" stroke-opacity="0.08" stroke-width="2"/>
    <path d="M404 280L286 184L555 150L615 344L382 418L204 322Z" stroke="#1B2A4A" stroke-opacity="0.14" stroke-width="2" stroke-linejoin="round"/>
    <path d="M286 184L555 150L615 344L382 418L204 322L286 184Z" stroke="url(#sh-gold)" stroke-opacity="0.88" stroke-width="2.5" stroke-linejoin="round"/>
    <path d="M404 280L286 184M404 280L555 150M404 280L615 344M404 280L382 418M404 280L204 322" stroke="#1B2A4A" stroke-opacity="0.18" stroke-width="2"/>
    <path d="M182 214L238 214" stroke="#1B2A4A" stroke-opacity="0.08" stroke-width="2" stroke-linecap="round"/>
    <path d="M570 104H626" stroke="#1B2A4A" stroke-opacity="0.08" stroke-width="2" stroke-linecap="round"/>
    <path d="M602 390H658" stroke="#1B2A4A" stroke-opacity="0.08" stroke-width="2" stroke-linecap="round"/>
    <circle cx="404" cy="280" r="16" fill="#FBFCFD" stroke="#E2B86D" stroke-width="3"/>
    <circle cx="404" cy="280" r="4" fill="#556A8A"/>
    <circle cx="286" cy="184" r="5" fill="#556A8A" fill-opacity="0.76"/>
    <circle cx="555" cy="150" r="5" fill="#556A8A" fill-opacity="0.76"/>
    <circle cx="615" cy="344" r="5" fill="#556A8A" fill-opacity="0.76"/>
    <circle cx="382" cy="418" r="5" fill="#556A8A" fill-opacity="0.76"/>
    <circle cx="204" cy="322" r="5" fill="#556A8A" fill-opacity="0.76"/>
    <circle cx="246" cy="206" r="3" fill="#C9913B"/>
    <circle cx="593" cy="170" r="3" fill="#C9913B"/>
    <circle cx="578" cy="372" r="3" fill="#C9913B"/>
</svg>
