<svg xmlns="http://www.w3.org/2000/svg" viewBox="0 0 800 560" width="800" height="560" fill="none">
    <defs>
        <linearGradient id="td-gold" x1="264" y1="314" x2="604" y2="314" gradientUnits="userSpaceOnUse">
            <stop offset="0" stop-color="#A8B7D0"/>
            <stop offset="0.56" stop-color="#5E7393"/>
            <stop offset="1" stop-color="#C9913B"/>
        </linearGradient>
    </defs>
    <rect x="178" y="122" width="444" height="296" rx="28" stroke="#1B2A4A" stroke-opacity="0.1" stroke-width="2"/>
    <rect x="214" y="166" width="372" height="208" rx="22" stroke="#1B2A4A" stroke-opacity="0.06" stroke-width="2"/>
    <path d="M248 208H552" stroke="#1B2A4A" stroke-opacity="0.16" stroke-width="2" stroke-linecap="round"/>
    <path d="M248 252H516" stroke="#1B2A4A" stroke-opacity="0.1" stroke-width="2" stroke-linecap="round"/>
    <path d="M248 296H474" stroke="#1B2A4A" stroke-opacity="0.1" stroke-width="2" stroke-linecap="round"/>
    <path d="M248 340H430" stroke="#1B2A4A" stroke-opacity="0.1" stroke-width="2" stroke-linecap="round"/>
    <path d="M264 314H594" stroke="url(#td-gold)" stroke-width="4" stroke-linecap="round"/>
    <path d="M594 314L628 314" stroke="#1B2A4A" stroke-opacity="0.12" stroke-width="2" stroke-linecap="round"/>
    <path d="M628 314L612 300" stroke="#C9913B" stroke-width="2.5" stroke-linecap="round"/>
    <path d="M628 314L612 328" stroke="#C9913B" stroke-width="2.5" stroke-linecap="round"/>
    <path d="M314 184V356" stroke="#1B2A4A" stroke-opacity="0.1" stroke-width="2" stroke-dasharray="7 12"/>
    <path d="M468 184V356" stroke="#1B2A4A" stroke-opacity="0.06" stroke-width="2" stroke-dasharray="7 12"/>
    <circle cx="264" cy="314" r="7" fill="#FBFCFD" stroke="#5F7394" stroke-width="2"/>
    <circle cx="384" cy="314" r="5" fill="#556A8A" fill-opacity="0.76"/>
    <circle cx="514" cy="314" r="5" fill="#556A8A" fill-opacity="0.76"/>
    <circle cx="594" cy="314" r="7" fill="#FBFCFD" stroke="#E2B86D" stroke-width="3"/>
    <circle cx="552" cy="208" r="3" fill="#C9913B"/>
    <circle cx="516" cy="252" r="3" fill="#C9913B"/>
    <circle cx="474" cy="296" r="3" fill="#C9913B"/>
</svg>
