<svg xmlns="http://www.w3.org/2000/svg" viewBox="0 0 800 600" fill="none">
  <rect width="800" height="600" fill="#F0F2F5"/>
  <defs>
    <pattern id="lines" width="20" height="20" patternUnits="userSpaceOnUse">
      <line x1="0" y1="20" x2="20" y2="0" stroke="#1B2A4A" stroke-width="0.3" opacity="0.04"/>
    </pattern>
  </defs>
  <rect width="800" height="600" fill="url(#lines)"/>
  <!-- Main document - tender proposal -->
  <rect x="260" y="100" width="280" height="380" rx="6" fill="#FFFFFF" stroke="#E2E6EC" stroke-width="1.5">
  </rect>
  <!-- Document header -->
  <rect x="260" y="100" width="280" height="50" rx="6" fill="#1B2A4A" opacity="0.06"/>
  <rect x="280" y="115" width="80" height="8" rx="2" fill="#1B2A4A" opacity="0.2"/>
  <rect x="280" y="130" width="50" height="6" rx="2" fill="#C9913B" opacity="0.4"/>
  <!-- Document content lines -->
  <rect x="280" y="170" width="200" height="6" rx="2" fill="#1B2A4A" opacity="0.12"/>
  <rect x="280" y="186" width="180" height="6" rx="2" fill="#1B2A4A" opacity="0.1"/>
  <rect x="280" y="202" width="190" height="6" rx="2" fill="#1B2A4A" opacity="0.08"/>
  <rect x="280" y="218" width="160" height="6" rx="2" fill="#1B2A4A" opacity="0.08"/>
  <!-- Section divider -->
  <line x1="280" y1="240" x2="520" y2="240" stroke="#C9913B" stroke-width="1" opacity="0.3"/>
  <!-- Checklist -->
  <rect x="280" y="256" width="14" height="14" rx="2" fill="none" stroke="#C9913B" stroke-width="1.5"/>
  <path d="M283 263 L287 267 L292 259" stroke="#C9913B" stroke-width="2" stroke-linecap="round" stroke-linejoin="round"/>
  <rect x="302" y="259" width="140" height="6" rx="2" fill="#1B2A4A" opacity="0.12"/>
  <rect x="280" y="282" width="14" height="14" rx="2" fill="none" stroke="#C9913B" stroke-width="1.5"/>
  <path d="M283 289 L287 293 L292 285" stroke="#C9913B" stroke-width="2" stroke-linecap="round" stroke-linejoin="round"/>
  <rect x="302" y="285" width="130" height="6" rx="2" fill="#1B2A4A" opacity="0.12"/>
  <rect x="280" y="308" width="14" height="14" rx="2" fill="none" stroke="#C9913B" stroke-width="1.5"/>
  <path d="M283 315 L287 319 L292 311" stroke="#C9913B" stroke-width="2" stroke-linecap="round" stroke-linejoin="round"/>
  <rect x="302" y="311" width="150" height="6" rx="2" fill="#1B2A4A" opacity="0.12"/>
  <rect x="280" y="334" width="14" height="14" rx="2" fill="none" stroke="#1B2A4A" stroke-width="1.5" opacity="0.3"/>
  <rect x="302" y="337" width="120" height="6" rx="2" fill="#1B2A4A" opacity="0.08"/>
  <rect x="280" y="360" width="14" height="14" rx="2" fill="none" stroke="#1B2A4A" stroke-width="1.5" opacity="0.3"/>
  <rect x="302" y="363" width="135" height="6" rx="2" fill="#1B2A4A" opacity="0.08"/>
  <!-- Progress bar at bottom -->
  <rect x="280" y="400" width="220" height="10" rx="5" fill="#E2E6EC"/>
  <rect x="280" y="400" width="165" height="10" rx="5" fill="#C9913B" opacity="0.7"/>
  <text x="283" y="430" font-family="Inter, sans-serif" font-size="10" fill="#1B2A4A" opacity="0.3">75% Complete</text>
  <!-- Side documents stacked -->
  <rect x="120" y="200" width="100" height="130" rx="4" fill="#FFFFFF" stroke="#E2E6EC" stroke-width="1" transform="rotate(-5 170 265)"/>
  <rect x="130" y="215" width="60" height="5" rx="1" fill="#1B2A4A" opacity="0.12"/>
  <rect x="130" y="228" width="50" height="4" rx="1" fill="#1B2A4A" opacity="0.08"/>
  <rect x="130" y="240" width="55" height="4" rx="1" fill="#1B2A4A" opacity="0.08"/>
  <rect x="580" y="220" width="100" height="130" rx="4" fill="#FFFFFF" stroke="#E2E6EC" stroke-width="1" transform="rotate(5 630 285)"/>
  <rect x="590" y="235" width="60" height="5" rx="1" fill="#1B2A4A" opacity="0.12"/>
  <rect x="590" y="248" width="50" height="4" rx="1" fill="#1B2A4A" opacity="0.08"/>
  <rect x="590" y="260" width="55" height="4" rx="1" fill="#1B2A4A" opacity="0.08"/>
  <!-- Award / ribbon -->
  <circle cx="630" cy="130" r="30" fill="#C9913B" fill-opacity="0.1" stroke="#C9913B" stroke-width="1.5" stroke-opacity="0.3"/>
  <circle cx="630" cy="125" r="12" fill="#C9913B" opacity="0.2"/>
  <path d="M620 145 L625 170 L630 155 L635 170 L640 145" stroke="#C9913B" stroke-width="1.5" fill="none" opacity="0.3"/>
  <!-- Gavel / legal element -->
  <rect x="130" y="420" width="50" height="8" rx="4" fill="#1B2A4A" opacity="0.12" transform="rotate(-30 155 424)"/>
  <circle cx="148" cy="412" r="12" fill="#1B2A4A" opacity="0.08"/>
  <!-- Clock / deadline -->
  <circle cx="660" cy="430" r="30" fill="none" stroke="#1B2A4A" stroke-width="1.5" opacity="0.12"/>
  <line x1="660" y1="430" x2="660" y2="410" stroke="#1B2A4A" stroke-width="1.5" opacity="0.2"/>
  <line x1="660" y1="430" x2="675" y2="435" stroke="#C9913B" stroke-width="1.5" opacity="0.3"/>
  <circle cx="660" cy="430" r="2" fill="#C9913B" opacity="0.4"/>
  <!-- Decorative -->
  <path d="M60 60 L95 60 L95 95" stroke="#C9913B" stroke-width="2" opacity="0.2" fill="none"/>
  <path d="M740 540 L705 540 L705 505" stroke="#1B2A4A" stroke-width="2" opacity="0.12" fill="none"/>
</svg>